HIERARCHY
ROOT Hips
{
	OFFSET 0.717293 88.513641 3.606412
	CHANNELS 6 Xposition Yposition Zposition Zrotation Yrotation Xrotation 
	JOINT Spine
	{
		OFFSET -0.000000 8.814246 -2.080107
		CHANNELS 3 Zrotation Yrotation Xrotation
		JOINT Spine1
		{
			OFFSET -0.000000 8.844141 -0.000000
			CHANNELS 3 Zrotation Yrotation Xrotation
			JOINT Spine2
			{
				OFFSET 0.000000 11.682268 0.000000
				CHANNELS 3 Zrotation Yrotation Xrotation
				JOINT Spine3
				{
					OFFSET 0.000000 11.746700 -0.000000
					CHANNELS 3 Zrotation Yrotation Xrotation
					JOINT Neck
					{
						OFFSET 0.000000 17.658264 0.000000
						CHANNELS 3 Zrotation Yrotation Xrotation
						JOINT Neck1
						{
							OFFSET -0.000000 5.101515 -0.000000
							CHANNELS 3 Zrotation Yrotation Xrotation
							JOINT Head
							{
								OFFSET -0.000000 5.101515 -0.000000
								CHANNELS 3 Zrotation Yrotation Xrotation
								JOINT HeadEnd
								{
									OFFSET -0.000000 11.655085 -0.000000
									CHANNELS 3 Zrotation Yrotation Xrotation
									End Site
									{
										OFFSET 0.000000 0.000000 0.000000
									}
								}
							}
						}
					}
					JOINT RightShoulder
					{
						OFFSET -2.625389 11.175210 -0.000000
						CHANNELS 3 Zrotation Yrotation Xrotation
						JOINT RightArm
						{
							OFFSET 0.000000 10.434715 0.000000
							CHANNELS 3 Zrotation Yrotation Xrotation
							JOINT RightForeArm
							{
								OFFSET 0.000000 29.628420 0.000000
								CHANNELS 3 Zrotation Yrotation Xrotation
								JOINT RightHand
								{
									OFFSET 0.000000 22.857611 -0.000000
									CHANNELS 3 Zrotation Yrotation Xrotation
									JOINT RightHandThumb1
									{
										OFFSET -2.867323 3.959563 2.944291
										CHANNELS 3 Zrotation Yrotation Xrotation
										JOINT RightHandThumb2
										{
											OFFSET 0.000000 3.350399 -0.000000
											CHANNELS 3 Zrotation Yrotation Xrotation
											JOINT RightHandThumb3
											{
												OFFSET 0.000000 3.756509 -0.000000
												CHANNELS 3 Zrotation Yrotation Xrotation
												JOINT RightHandThumb4
												{
													OFFSET -0.000000 3.147345 -0.000000
													CHANNELS 3 Zrotation Yrotation Xrotation
													End Site
													{
														OFFSET 0.000000 0.000000 0.000000
													}
												}
											}
										}
									}
									JOINT RightHandIndex1
									{
										OFFSET -0.086752 10.030893 2.345280
										CHANNELS 3 Zrotation Yrotation Xrotation
										JOINT RightHandIndex2
										{
											OFFSET -0.000000 4.061090 -0.000000
											CHANNELS 3 Zrotation Yrotation Xrotation
											JOINT RightHandIndex3
											{
												OFFSET -0.000000 3.248873 0.000000
												CHANNELS 3 Zrotation Yrotation Xrotation
												JOINT RightHandIndex4
												{
													OFFSET -0.000000 2.639709 0.000000
													CHANNELS 3 Zrotation Yrotation Xrotation
													End Site
													{
														OFFSET 0.000000 0.000000 0.000000
													}
												}
											}
										}
									}
									JOINT RightHandMiddle1
									{
										OFFSET 0.104102 9.502952 0.006768
										CHANNELS 3 Zrotation Yrotation Xrotation
										JOINT RightHandMiddle2
										{
											OFFSET 0.000000 4.568727 -0.000000
											CHANNELS 3 Zrotation Yrotation Xrotation
											JOINT RightHandMiddle3
											{
												OFFSET 0.000000 3.654981 -0.000000
												CHANNELS 3 Zrotation Yrotation Xrotation
												JOINT RightHandMiddle4
												{
													OFFSET 0.000000 2.741236 0.000000
													CHANNELS 3 Zrotation Yrotation Xrotation
													End Site
													{
														OFFSET 0.000000 0.000000 0.000000
													}
												}
											}
										}
									}
									JOINT RightHandRing1
									{
										OFFSET 0.086752 8.921708 -2.267442
										CHANNELS 3 Zrotation Yrotation Xrotation
										JOINT RightHandRing2
										{
											OFFSET -0.000000 4.061090 -0.000000
											CHANNELS 3 Zrotation Yrotation Xrotation
											JOINT RightHandRing3
											{
												OFFSET -0.000000 3.654981 0.000000
												CHANNELS 3 Zrotation Yrotation Xrotation
												JOINT RightHandRing4
												{
													OFFSET -0.000000 2.741236 0.000000
													CHANNELS 3 Zrotation Yrotation Xrotation
													End Site
													{
														OFFSET 0.000000 0.000000 0.000000
													}
												}
											}
										}
									}
									JOINT RightHandPinky1
									{
										OFFSET -0.173504 7.976997 -4.467199
										CHANNELS 3 Zrotation Yrotation Xrotation
										JOINT RightHandPinky2
										{
											OFFSET -0.000000 3.350399 -0.000000
											CHANNELS 3 Zrotation Yrotation Xrotation
											JOINT RightHandPinky3
											{
												OFFSET -0.000000 2.842763 0.000000
												CHANNELS 3 Zrotation Yrotation Xrotation
												JOINT RightHandPinky4
												{
													OFFSET 0.000000 2.639709 -0.000000
													CHANNELS 3 Zrotation Yrotation Xrotation
													End Site
													{
														OFFSET 0.000000 0.000000 0.000000
													}
												}
											}
										}
									}
									JOINT RightForeArmEnd
									{
										OFFSET 0.000000 0.000000 0.000000
										CHANNELS 3 Zrotation Yrotation Xrotation
										End Site
										{
											OFFSET 0.000000 0.000000 0.000000
										}
									}
								}
								JOINT RightArmEnd
								{
									OFFSET 0.000000 0.000000 0.000000
									CHANNELS 3 Zrotation Yrotation Xrotation
									End Site
									{
										OFFSET 0.000000 0.000000 0.000000
									}
								}
							}
						}
					}
					JOINT LeftShoulder
					{
						OFFSET 2.625389 11.175210 -0.000000
						CHANNELS 3 Zrotation Yrotation Xrotation
						JOINT LeftArm
						{
							OFFSET 0.000000 10.813635 0.000000
							CHANNELS 3 Zrotation Yrotation Xrotation
							JOINT LeftForeArm
							{
								OFFSET -0.000000 28.724781 -0.000000
								CHANNELS 3 Zrotation Yrotation Xrotation
								JOINT LeftHand
								{
									OFFSET 0.644384 25.716167 -0.328871
									CHANNELS 3 Zrotation Yrotation Xrotation
									JOINT LeftHandThumb1
									{
										OFFSET 2.867323 3.959563 2.944291
										CHANNELS 3 Zrotation Yrotation Xrotation
										JOINT LeftHandThumb2
										{
											OFFSET 0.000000 3.350399 0.000000
											CHANNELS 3 Zrotation Yrotation Xrotation
											JOINT LeftHandThumb3
											{
												OFFSET 0.000000 3.756509 0.000000
												CHANNELS 3 Zrotation Yrotation Xrotation
												JOINT LeftHandThumb4
												{
													OFFSET -0.000000 3.100000 0.000000
													CHANNELS 3 Zrotation Yrotation Xrotation
													End Site
													{
														OFFSET 0.000000 0.000000 0.000000
													}
												}
											}
										}
									}
									JOINT LeftHandIndex1
									{
										OFFSET 0.086752 10.030893 2.345280
										CHANNELS 3 Zrotation Yrotation Xrotation
										JOINT LeftHandIndex2
										{
											OFFSET -0.000000 4.061090 -0.000000
											CHANNELS 3 Zrotation Yrotation Xrotation
											JOINT LeftHandIndex3
											{
												OFFSET -0.000000 3.248873 -0.000000
												CHANNELS 3 Zrotation Yrotation Xrotation
												JOINT LeftHandIndex4
												{
													OFFSET -0.000000 2.639709 -0.000000
													CHANNELS 3 Zrotation Yrotation Xrotation
													End Site
													{
														OFFSET 0.000000 0.000000 0.000000
													}
												}
											}
										}
									}
									JOINT LeftHandMiddle1
									{
										OFFSET -0.104102 9.502952 0.006768
										CHANNELS 3 Zrotation Yrotation Xrotation
										JOINT LeftHandMiddle2
										{
											OFFSET 0.000000 4.568727 -0.000000
											CHANNELS 3 Zrotation Yrotation Xrotation
											JOINT LeftHandMiddle3
											{
												OFFSET 0.000000 3.654981 0.000000
												CHANNELS 3 Zrotation Yrotation Xrotation
												JOINT LeftHandMiddle4
												{
													OFFSET 0.000000 2.741236 0.000000
													CHANNELS 3 Zrotation Yrotation Xrotation
													End Site
													{
														OFFSET 0.000000 0.000000 0.000000
													}
												}
											}
										}
									}
									JOINT LeftHandRing1
									{
										OFFSET -0.086752 8.921708 -2.267442
										CHANNELS 3 Zrotation Yrotation Xrotation
										JOINT LeftHandRing2
										{
											OFFSET -0.000000 4.061090 -0.000000
											CHANNELS 3 Zrotation Yrotation Xrotation
											JOINT LeftHandRing3
											{
												OFFSET 0.000000 3.654981 0.000000
												CHANNELS 3 Zrotation Yrotation Xrotation
												JOINT LeftHandRing4
												{
													OFFSET -0.000000 2.741236 -0.000000
													CHANNELS 3 Zrotation Yrotation Xrotation
													End Site
													{
														OFFSET 0.000000 0.000000 0.000000
													}
												}
											}
										}
									}
									JOINT LeftHandPinky1
									{
										OFFSET 0.173504 7.976997 -4.467199
										CHANNELS 3 Zrotation Yrotation Xrotation
										JOINT LeftHandPinky2
										{
											OFFSET 0.000000 3.350399 -0.000000
											CHANNELS 3 Zrotation Yrotation Xrotation
											JOINT LeftHandPinky3
											{
												OFFSET 0.000000 2.842763 0.000000
												CHANNELS 3 Zrotation Yrotation Xrotation
												JOINT LeftHandPinky4
												{
													OFFSET -0.000000 2.639709 -0.000000
													CHANNELS 3 Zrotation Yrotation Xrotation
													End Site
													{
														OFFSET 0.000000 0.000000 0.000000
													}
												}
											}
										}
									}
									JOINT LeftForeArmEnd
									{
										OFFSET 0.000000 0.000000 0.000000
										CHANNELS 3 Zrotation Yrotation Xrotation
										End Site
										{
											OFFSET 0.000000 0.000000 0.000000
										}
									}
								}
								JOINT LeftArmEnd
								{
									OFFSET 0.000000 0.000000 0.000000
									CHANNELS 3 Zrotation Yrotation Xrotation
									End Site
									{
										OFFSET 0.000000 0.000000 0.000000
									}
								}
							}
						}
					}
				}
			}
		}
	}
	JOINT RightUpLeg
	{
		OFFSET -11.289943 0.000000 -0.000000
		CHANNELS 3 Zrotation Yrotation Xrotation
		JOINT RightLeg
		{
			OFFSET 0.000000 -38.200325 -0.000000
			CHANNELS 3 Zrotation Yrotation Xrotation
			JOINT RightFoot
			{
				OFFSET -0.000000 -39.900856 -0.000000
				CHANNELS 3 Zrotation Yrotation Xrotation
				JOINT RightToeBase
				{
					OFFSET -0.000000 0.000000 15.261641
					CHANNELS 3 Zrotation Yrotation Xrotation
					JOINT RightToeBaseEnd
					{
						OFFSET 0.000000 0.000000 7.370709
						CHANNELS 3 Zrotation Yrotation Xrotation
						End Site
						{
							OFFSET 0.000000 0.000000 0.000000
						}
					}
				}
				JOINT RightLegEnd
				{
					OFFSET 0.000000 0.000000 0.000000
					CHANNELS 3 Zrotation Yrotation Xrotation
					End Site
					{
						OFFSET 0.000000 0.000000 0.000000
					}
				}
			}
			JOINT RightUpLegEnd
			{
				OFFSET 0.000000 0.000000 0.000000
				CHANNELS 3 Zrotation Yrotation Xrotation
				End Site
				{
					OFFSET 0.000000 0.000000 0.000000
				}
			}
		}
	}
	JOINT LeftUpLeg
	{
		OFFSET 11.315661 -0.000000 -0.000000
		CHANNELS 3 Zrotation Yrotation Xrotation
		JOINT LeftLeg
		{
			OFFSET 0.000000 -38.200325 0.000000
			CHANNELS 3 Zrotation Yrotation Xrotation
			JOINT LeftFoot
			{
				OFFSET 0.000000 -39.900856 0.000000
				CHANNELS 3 Zrotation Yrotation Xrotation
				JOINT LeftToeBase
				{
					OFFSET 0.000000 -0.000000 15.261641
					CHANNELS 3 Zrotation Yrotation Xrotation
					JOINT LeftToeBaseEnd
					{
						OFFSET -0.000000 0.000000 7.539996
						CHANNELS 3 Zrotation Yrotation Xrotation
						End Site
						{
							OFFSET 0.000000 0.000000 0.000000
						}
					}
				}
				JOINT LeftLegEnd
				{
					OFFSET 0.000000 0.000000 0.000000
					CHANNELS 3 Zrotation Yrotation Xrotation
					End Site
					{
						OFFSET 0.000000 0.000000 0.000000
					}
				}
			}
			JOINT LeftUpLegEnd
			{
				OFFSET 0.000000 0.000000 0.000000
				CHANNELS 3 Zrotation Yrotation Xrotation
				End Site
				{
					OFFSET 0.000000 0.000000 0.000000
				}
			}
		}
	}
}
MOTION
Frames: 5
Frame Time: 0.016667
4.796674 86.708641 9.005941 -0.428384 0.162613 -13.459527 1.526267 -0.114057 8.313845 0.105050 0.087425 0.800596 -1.008923 -0.220553 6.484565 -0.920692 -0.153827 4.792498 3.458820 -1.846728 4.607661 0.023406 -0.351648 -3.744445 0.200029 -0.765854 -21.378548 0.000000 0.000000 0.000000 88.979225 0.225222 8.998030 66.459824 -6.255525 4.990946 -0.560522 17.563154 85.243790 21.788864 50.366032 9.393584 9.193295 -1.683518 40.393696 0.000002 0.000019 -22.576946 0.000009 0.000061 -15.509020 -0.000001 0.000003 -0.000001 5.384639 0.195044 1.866662 4.417012 -0.084303 0.286486 4.207532 -0.063433 0.209054 -0.000014 0.000034 -0.000006 5.463836 0.036360 -2.240830 4.289269 -0.038010 0.079186 4.472036 -0.012605 0.069457 -0.000007 0.000118 -0.000001 9.238542 -0.048092 -7.540605 5.638359 0.062349 -0.085477 5.654172 0.027105 -0.066053 0.000009 0.001807 0.000005 12.369944 -0.109165 -14.566044 7.212397 0.180398 0.014931 7.256642 0.063466 -0.017691 -0.000724 0.000013 -0.000012 0.000000 0.000000 0.000000 0.000000 0.000000 0.000000 -86.643517 -0.704575 4.590275 -72.547920 -0.107108 -3.834882 -0.052284 -16.788052 103.842758 -46.821053 -57.033524 34.629330 -7.103815 1.418004 41.332458 0.000002 0.000004 -17.579403 -0.000046 -0.000036 -12.192698 0.001525 0.000016 0.000303 2.358593 0.173105 3.554769 -0.597006 -0.069226 -0.119547 -0.625113 -0.053718 -0.063708 0.000015 -0.000320 -0.000010 0.086537 0.061388 -1.843025 -1.210623 -0.039180 -0.049284 -1.070506 -0.011908 -0.038521 -0.000346 0.000008 0.000044 -6.486683 -0.027097 -9.731099 -3.739623 0.084165 0.041240 -3.470760 0.024708 0.019026 -0.000066 0.000011 0.000004 -11.764628 -0.186706 -18.095943 -7.186952 0.168122 0.073781 -7.242594 0.069906 -0.010572 -0.000285 0.000008 -0.000048 0.000000 0.000000 0.000000 0.000000 0.000000 0.000000 -4.503221 -14.025234 19.568993 -0.103971 -0.796689 5.708521 0.005136 -9.661377 14.848061 -1.079524 0.922619 -17.292957 0.000000 0.000000 0.000000 0.000000 0.000000 0.000000 0.000000 0.000000 0.000000 4.789937 -0.506475 13.403069 0.155320 0.872620 11.634809 -0.480080 2.841511 15.224915 0.730455 -0.767633 -19.954899 0.000000 0.000000 0.000000 0.000000 0.000000 0.000000 0.000000 0.000000 0.000000 
4.743161 86.705460 9.000331 -0.452512 0.088661 -13.447394 1.530297 -0.124709 8.315592 0.096239 0.079245 0.817711 -0.982740 -0.305705 6.477574 -0.902626 -0.183749 4.811400 3.533062 -1.759905 4.644161 0.022666 -0.246056 -3.725450 0.168677 -0.756060 -21.347105 0.000000 0.000000 0.000000 88.874886 0.247967 8.989805 66.680702 -5.823225 5.094445 -0.560249 17.720196 85.385284 22.055899 50.887257 9.862461 9.272056 -1.691558 40.361370 0.000002 0.000020 -22.756672 0.000009 0.000061 -15.636482 -0.000001 0.000003 -0.000002 5.823904 0.197693 1.779401 4.652287 -0.084846 0.286922 4.447540 -0.063954 0.209104 -0.000014 0.000034 -0.000006 5.898739 0.037040 -2.258645 4.524328 -0.038359 0.079445 4.711458 -0.012833 0.069927 -0.000007 0.000119 -0.000001 9.673992 -0.049320 -7.446464 5.895224 0.062382 -0.084399 5.907368 0.027174 -0.065058 0.000009 0.001796 0.000005 12.724376 -0.115045 -14.363001 7.446395 0.179282 0.021061 7.499098 0.063058 -0.013664 -0.000741 0.000013 -0.000011 0.000000 0.000000 0.000000 0.000000 0.000000 0.000000 -86.606766 -0.713485 4.659704 -72.651466 -0.100790 -3.918746 -0.070259 -16.859472 103.365097 -46.360043 -57.533768 34.274910 -7.131860 1.422777 41.320690 0.000002 0.000005 -17.641327 -0.000049 -0.000036 -12.240317 0.001555 0.000016 0.000251 2.194159 0.174305 3.415694 -0.622934 -0.069734 -0.129297 -0.657053 -0.054321 -0.073020 0.000015 -0.000327 -0.000011 -0.088904 0.061797 -1.907498 -1.247511 -0.039602 -0.052422 -1.112110 -0.012392 -0.041149 -0.000312 0.000008 0.000047 -6.702659 -0.027491 -9.680572 -3.807320 0.084164 0.044236 -3.540593 0.024795 0.021708 0.000071 0.000011 0.000004 -11.997450 -0.189544 -17.932638 -7.260166 0.166977 0.079138 -7.317070 0.069053 -0.006564 -0.000260 0.000008 -0.000048 0.000000 0.000000 0.000000 0.000000 0.000000 0.000000 -4.432032 -14.022497 19.548527 -0.102918 -0.794737 5.682657 -0.036242 -9.652364 14.884087 -1.074271 0.921125 -17.314825 0.000000 0.000000 0.000000 0.000000 0.000000 0.000000 0.000000 0.000000 0.000000 4.889799 -0.466939 13.378142 0.158088 0.880738 11.698959 -0.565068 2.855714 15.191522 0.741413 -0.772935 -19.963867 0.000000 0.000000 0.000000 0.000000 0.000000 0.000000 0.000000 0.000000 0.000000 
4.689330 86.703728 8.989815 -0.478580 0.001327 -13.429820 1.545062 -0.136393 8.318054 0.082093 0.074213 0.842487 -0.951271 -0.394558 6.468585 -0.888188 -0.212786 4.834535 3.607242 -1.671568 4.671559 0.023788 -0.137394 -3.708755 0.138228 -0.747166 -21.305166 0.000000 0.000000 0.000000 88.767212 0.267750 8.980058 66.864067 -5.365123 5.217476 -0.558800 17.892342 85.467064 22.157913 51.394531 10.228247 9.351447 -1.700192 40.327747 0.000002 0.000021 -22.940378 0.000009 0.000061 -15.767735 -0.000000 0.000002 -0.000002 6.285147 0.199509 1.691506 4.878780 -0.084849 0.285363 4.678315 -0.063934 0.207224 -0.000014 0.000033 -0.000007 6.351954 0.037595 -2.270019 4.750729 -0.038445 0.078865 4.942073 -0.012890 0.069693 -0.000008 0.000120 -0.000001 10.110591 -0.050512 -7.334878 6.141026 0.062060 -0.082436 6.149142 0.027004 -0.063318 0.000009 0.001778 0.000005 13.060613 -0.121053 -14.128496 7.664567 0.177724 0.028564 7.725263 0.062281 -0.008614 -0.000756 0.000012 -0.000010 0.000000 0.000000 0.000000 0.000000 0.000000 0.000000 -86.566162 -0.717711 4.718193 -72.741608 -0.060409 -4.021928 -0.090722 -16.926369 102.871689 -45.797619 -58.055500 33.855198 -7.169184 1.427993 41.305355 0.000001 0.000005 -17.726284 -0.000052 -0.000035 -12.303193 0.001581 0.000016 0.000204 1.985018 0.175157 3.272136 -0.675271 -0.069761 -0.136618 -0.715982 -0.054486 -0.080228 0.000016 -0.000347 -0.000011 -0.301762 0.062109 -1.969513 -1.310227 -0.039820 -0.054429 -1.179468 -0.012691 -0.042908 -0.000275 0.000007 0.000049 -6.945027 -0.027786 -9.613950 -3.895809 0.083908 0.046164 -3.630994 0.024731 0.023466 0.000205 0.000011 0.000004 -12.245316 -0.192299 -17.737803 -7.347655 0.165368 0.082830 -7.405974 0.068050 -0.004180 -0.000231 0.000008 -0.000049 0.000000 0.000000 0.000000 0.000000 0.000000 0.000000 -4.357723 -14.022308 19.514544 -0.101563 -0.791559 5.655083 -0.082826 -9.633679 14.937055 -1.067332 0.918505 -17.338818 0.000000 0.000000 0.000000 0.000000 0.000000 0.000000 0.000000 0.000000 0.000000 4.998934 -0.419815 13.345665 0.161012 0.888888 11.764344 -0.655762 2.873503 15.162447 0.752840 -0.778587 -19.976252 0.000000 0.000000 0.000000 0.000000 0.000000 0.000000 0.000000 0.000000 0.000000 
4.634727 86.703354 8.975284 -0.506124 -0.098468 -13.407188 1.569626 -0.148848 8.321602 0.063956 0.072415 0.874369 -0.914632 -0.483273 6.456582 -0.876975 -0.239382 4.858686 3.675525 -1.586775 4.682042 0.026113 -0.032605 -3.699035 0.109454 -0.739553 -21.255020 0.000000 0.000000 0.000000 88.660515 0.283337 8.967030 67.001762 -4.897077 5.343660 -0.557347 18.067499 85.502060 22.115908 51.876831 10.491073 9.428055 -1.709037 40.294308 0.000001 0.000022 -23.120514 0.000009 0.000061 -15.897077 -0.000000 0.000002 -0.000003 6.752136 0.200432 1.601787 5.092066 -0.084334 0.282154 4.895789 -0.063420 0.203808 -0.000014 0.000033 -0.000007 6.808758 0.038002 -2.277534 4.964411 -0.038255 0.077532 5.159912 -0.012760 0.068835 -0.000009 0.000120 -0.000002 10.538151 -0.051570 -7.212335 6.374103 0.061401 -0.079742 6.377667 0.026612 -0.060997 0.000008 0.001753 0.000005 13.376933 -0.126742 -13.873285 7.868456 0.175721 0.037116 7.936100 0.061190 -0.002682 -0.000769 0.000012 -0.000009 0.000000 0.000000 0.000000 0.000000 0.000000 0.000000 -86.523277 -0.717839 4.762388 -72.819145 -0.003382 -4.144346 -0.113852 -16.994017 102.388847 -45.207375 -58.552471 33.413059 -7.213064 1.433443 41.287498 0.000001 0.000005 -17.828245 -0.000055 -0.000035 -12.376978 0.001604 0.000016 0.000163 1.740022 0.175489 3.119648 -0.750919 -0.069362 -0.141434 -0.798708 -0.054252 -0.085285 0.000016 -0.000374 -0.000012 -0.541932 0.062253 -2.035666 -1.395693 -0.039846 -0.055323 -1.269292 -0.012805 -0.043795 -0.000231 0.000007 0.000051 -7.204444 -0.027944 -9.543033 -4.003159 0.083410 0.047015 -3.739340 0.024537 0.024258 0.000332 0.000012 0.000003 -12.500126 -0.194717 -17.528181 -7.449019 0.163268 0.084604 -7.508860 0.066931 -0.003618 -0.000203 0.000008 -0.000049 0.000000 0.000000 0.000000 0.000000 0.000000 0.000000 -4.281220 -14.024387 19.469013 -0.099933 -0.787403 5.625330 -0.135509 -9.605088 15.002144 -1.059019 0.914952 -17.362083 0.000000 0.000000 0.000000 0.000000 0.000000 0.000000 0.000000 0.000000 0.000000 5.114478 -0.369257 13.307930 0.164004 0.897206 11.828103 -0.750125 2.898279 15.136718 0.764723 -0.784552 -19.990469 0.000000 0.000000 0.000000 0.000000 0.000000 0.000000 0.000000 0.000000 0.000000 
4.578773 86.704315 8.957914 -0.534153 -0.210086 -13.379091 1.601746 -0.161498 8.325952 0.044071 0.073598 0.911883 -0.874228 -0.567179 6.441693 -0.868432 -0.261757 4.881018 3.736339 -1.512200 4.674289 0.028657 0.060424 -3.697235 0.083854 -0.733166 -21.198875 0.000000 0.000000 0.000000 88.557762 0.294149 8.948426 67.090065 -4.433817 5.458790 -0.557165 18.237545 85.504456 21.945421 52.325764 10.651247 9.501434 -1.717858 40.261482 0.000001 0.000023 -23.296125 0.000008 0.000061 -16.023424 0.000000 0.000002 -0.000003 7.221955 0.200469 1.507574 5.298046 -0.083249 0.277336 5.105978 -0.062361 0.198990 -0.000014 0.000033 -0.000008 7.266236 0.038255 -2.284574 5.171249 -0.037759 0.075453 5.371229 -0.012406 0.067361 -0.000009 0.000120 -0.000002 10.957777 -0.052430 -7.084677 6.601968 0.060342 -0.076319 6.600399 0.025956 -0.058141 0.000008 0.001721 0.000005 13.680501 -0.131847 -13.606201 8.067147 0.173034 0.046792 8.140603 0.059637 0.004272 -0.000779 0.000012 -0.000008 0.000000 0.000000 0.000000 0.000000 0.000000 0.000000 -86.480362 -0.713682 4.788506 -72.886467 0.056686 -4.286894 -0.139308 -17.064535 101.942078 -44.655041 -58.990768 32.995922 -7.261848 1.439118 41.267586 0.000000 0.000005 -17.943794 -0.000058 -0.000034 -12.459412 0.001624 0.000016 0.000125 1.460731 0.175223 2.952313 -0.847914 -0.068647 -0.144239 -0.903080 -0.053722 -0.088645 0.000017 -0.000402 -0.000012 -0.807162 0.062205 -2.112512 -1.502259 -0.039717 -0.055340 -1.379911 -0.012764 -0.043983 -0.000179 0.000006 0.000052 -7.479462 -0.027968 -9.477809 -4.129598 0.082718 0.047093 -3.865561 0.024255 0.024298 0.000449 0.000012 0.000003 -12.762168 -0.196682 -17.316360 -7.566487 0.160792 0.085075 -7.627920 0.065778 -0.004394 -0.000181 0.000008 -0.000049 0.000000 0.000000 0.000000 0.000000 0.000000 0.000000 -4.203187 -14.026338 19.413515 -0.098070 -0.782533 5.592886 -0.193983 -9.567329 15.075161 -1.049813 0.910782 -17.383461 0.000000 0.000000 0.000000 0.000000 0.000000 0.000000 0.000000 0.000000 0.000000 5.233116 -0.318453 13.267442 0.166987 0.905876 11.886829 -0.847125 2.932778 15.113203 0.777046 -0.791167 -20.004713 0.000000 0.000000 0.000000 0.000000 0.000000 0.000000 0.000000 0.000000 0.000000 
